<svg version="1.1" id="Layer_1" xmlns="http://www.w3.org/2000/svg" xmlns:xlink="http://www.w3.org/1999/xlink" x="0px" y="0px"
	 width="100%" viewBox="0 0 80 80" enable-background="new 0 0 80 80" xml:space="preserve">
<path fill="#aff000" opacity="000000" stroke="none" 
	d="
M81.000000,24.999926 
	C81.000000,43.999935 81.000000,62.499931 81.000000,80.999939 
	C54.333370,80.999962 27.666737,80.999962 1.000079,80.999985 
	C1.000053,54.333378 1.000053,27.666756 1.000026,1.000101 
	C27.666613,1.000067 54.333225,1.000067 80.999924,1.000034 
	C81.000000,8.833302 81.000000,16.666605 81.000000,24.999926 
M3.079864,43.379662 
	C4.132751,68.447670 26.512045,83.605759 49.769917,78.319054 
	C73.509270,72.922897 84.517838,50.431713 76.822418,27.675268 
	C69.942162,7.329413 49.822514,-0.663966 30.390217,4.160059 
	C15.173604,7.937550 1.516680,22.993200 3.079864,43.379662 
z"/>
<path fill="#6AA2D8" opacity="1.000000" stroke="none" 
	d="
M3.079861,42.903465 
	C1.516680,22.993200 15.173604,7.937550 30.390217,4.160059 
	C49.822514,-0.663966 69.942162,7.329413 76.822418,27.675268 
	C84.517838,50.431713 73.509270,72.922897 49.769917,78.319054 
	C26.512045,83.605759 4.132751,68.447670 3.079861,42.903465 
M68.615494,63.708641 
	C69.612770,62.408257 70.722458,61.178242 71.588013,59.795406 
	C75.517189,53.518028 75.037544,52.169895 68.281349,48.720078 
	C68.214058,43.324669 68.146767,37.929256 68.833351,32.368664 
	C74.989555,29.399147 75.349564,28.466955 71.945381,22.883667 
	C70.862022,21.106823 69.337921,19.598701 67.713692,17.370062 
	C62.121006,11.201562 55.359127,7.152754 46.319283,5.544041 
	C42.538132,5.681779 38.756981,5.819519 34.202415,6.005636 
	C26.096640,7.684556 19.165884,11.348495 13.385199,18.286234 
	C11.511679,21.458511 9.638160,24.630787 7.348198,28.450855 
	C4.698853,37.077915 4.438881,45.666031 7.972039,54.866375 
	C9.978616,57.915192 11.985192,60.964008 14.284186,64.616821 
	C19.872021,70.798721 26.650108,74.823532 35.661907,76.483871 
	C39.448071,76.334503 43.234234,76.185135 47.793873,75.988922 
	C55.903961,74.317139 62.828033,70.641312 68.615494,63.708641 
z"/>
<path fill="#9BCDFD" opacity="1.000000" stroke="none" 
	d="
M68.079475,32.533848 
	C68.146767,37.929256 68.214058,43.324669 67.966850,49.409737 
	C65.759926,53.398670 63.867496,56.697941 61.681831,60.157749 
	C56.592812,63.170967 51.797031,66.023651 46.540543,68.893463 
	C42.386059,68.902084 38.692284,68.893570 34.739548,68.651169 
	C29.664532,65.610405 24.848478,62.803532 19.877148,59.693413 
	C17.827053,56.235729 15.932233,53.081291 14.012087,49.511154 
	C14.003910,43.421509 14.021060,37.747559 14.274380,31.820293 
	C16.353783,28.379490 18.197018,25.192003 20.331554,21.841915 
	C25.414707,18.824837 30.206558,15.970359 35.459175,13.100240 
	C39.613800,13.094864 43.307659,13.105129 47.260529,13.349220 
	C52.341618,16.389181 57.163692,19.195318 62.136116,22.306961 
	C64.217468,25.919598 66.148476,29.226723 68.079475,32.533848 
M54.513111,29.054993 
	C53.797623,28.358227 53.142948,27.582548 52.357170,26.976990 
	C45.073994,21.364208 35.015556,21.795851 28.561695,27.966753 
	C22.091717,34.153065 21.197231,44.227028 26.454536,51.698189 
	C31.294394,58.576111 41.219551,60.844368 49.247398,56.907192 
	C59.188454,52.031700 61.647434,40.378204 54.513111,29.054993 
z"/>
<path fill="#B6DCFE" opacity="1.000000" stroke="none" 
	d="
M14.038210,32.073612 
	C14.021060,37.747559 14.003910,43.421509 13.699352,49.665001 
	C11.530571,51.554913 9.649198,52.875282 7.767824,54.195648 
	C4.438881,45.666031 4.698853,37.077915 7.751695,28.427534 
	C10.116199,29.627346 12.077205,30.850479 14.038210,32.073612 
z"/>
<path fill="#B6DCFE" opacity="1.000000" stroke="none" 
	d="
M61.985764,22.001451 
	C57.163692,19.195318 52.341618,16.389181 47.260124,12.897086 
	C47.008221,10.126591 47.015743,8.042052 47.023262,5.957514 
	C55.359127,7.152754 62.121006,11.201562 67.662323,17.929081 
	C65.735893,19.659218 63.860828,20.830334 61.985764,22.001451 
z"/>
<path fill="#B6DCFE" opacity="1.000000" stroke="none" 
	d="
M34.998409,13.115881 
	C30.206558,15.970359 25.414707,18.824837 20.034235,21.685986 
	C17.626083,20.452438 15.806551,19.212217 13.987020,17.971998 
	C19.165884,11.348495 26.096640,7.684556 34.596588,6.426805 
	C34.993309,8.937276 34.995857,11.026578 34.998409,13.115881 
z"/>
<path fill="#B6DCFE" opacity="1.000000" stroke="none" 
	d="
M20.032425,59.996658 
	C24.848478,62.803532 29.664532,65.610405 34.739933,69.103004 
	C34.992779,71.871292 34.986282,73.953850 34.979786,76.036415 
	C26.650108,74.823532 19.872021,70.798721 14.341656,64.057549 
	C16.276892,62.331070 18.154657,61.163864 20.032425,59.996658 
z"/>
<path fill="#B6DCFE" opacity="1.000000" stroke="none" 
	d="
M47.001244,68.876335 
	C51.797031,66.023651 56.592812,63.170967 61.977749,60.313126 
	C64.381721,61.546665 66.196533,62.785355 68.011345,64.024048 
	C62.828033,70.641312 55.903961,74.317139 47.400894,75.567337 
	C47.005692,73.055939 47.003468,70.966141 47.001244,68.876335 
z"/>
<path fill="#DDEFFE" opacity="1.000000" stroke="none" 
	d="
M62.136116,22.306961 
	C63.860828,20.830334 65.735893,19.659218 67.813232,18.227856 
	C69.337921,19.598701 70.862022,21.106823 71.945381,22.883667 
	C75.349564,28.466955 74.989555,29.399147 68.456413,32.451256 
	C66.148476,29.226723 64.217468,25.919598 62.136116,22.306961 
z"/>
<path fill="#DDEFFE" opacity="1.000000" stroke="none" 
	d="
M68.313416,63.866344 
	C66.196533,62.785355 64.381721,61.546665 62.270988,60.152596 
	C63.867496,56.697941 65.759926,53.398670 67.864609,49.782028 
	C75.037544,52.169895 75.517189,53.518028 71.588013,59.795406 
	C70.722458,61.178242 69.612770,62.408257 68.313416,63.866344 
z"/>
<path fill="#DFF0FE" opacity="1.000000" stroke="none" 
	d="
M35.459175,13.100239 
	C34.995857,11.026578 34.993309,8.937276 34.983295,6.402616 
	C38.756981,5.819519 42.538132,5.681779 46.671272,5.750777 
	C47.015743,8.042052 47.008221,10.126591 47.001106,12.663261 
	C43.307659,13.105129 39.613800,13.094864 35.459175,13.100239 
z"/>
<path fill="#DDEFFE" opacity="1.000000" stroke="none" 
	d="
M13.686110,18.129116 
	C15.806551,19.212217 17.626083,20.452438 19.742933,21.848587 
	C18.197018,25.192003 16.353783,28.379490 14.274380,31.820293 
	C12.077205,30.850479 10.116199,29.627346 7.959916,28.103638 
	C9.638160,24.630787 11.511679,21.458511 13.686110,18.129116 
z"/>
<path fill="#DEEFFE" opacity="1.000000" stroke="none" 
	d="
M19.877150,59.693413 
	C18.154657,61.163864 16.276892,62.331070 14.195446,63.755554 
	C11.985192,60.964008 9.978616,57.915192 7.869931,54.531013 
	C9.649198,52.875282 11.530571,51.554913 13.724678,50.080700 
	C15.932233,53.081291 17.827053,56.235729 19.877150,59.693413 
z"/>
<path fill="#DFF0FE" opacity="1.000000" stroke="none" 
	d="
M46.540539,68.893463 
	C47.003468,70.966141 47.005692,73.055939 47.014156,75.590759 
	C43.234234,76.185135 39.448071,76.334503 35.320847,76.260147 
	C34.986282,73.953850 34.992779,71.871292 34.998894,69.336899 
	C38.692284,68.893570 42.386059,68.902084 46.540539,68.893463 
z"/>
<path fill="#D9EAF9" opacity="1.000000" stroke="none" 
	d="
M54.761299,29.327385 
	C61.647434,40.378204 59.188454,52.031700 49.247398,56.907192 
	C41.219551,60.844368 31.294394,58.576111 26.454536,51.698189 
	C21.197231,44.227028 22.091717,34.153065 28.561695,27.966753 
	C35.015556,21.795851 45.073994,21.364208 52.357170,26.976990 
	C53.142948,27.582548 53.797623,28.358227 54.761299,29.327385 
M45.326397,31.386431 
	C41.745331,35.359505 40.431976,43.628704 43.204506,48.016041 
	C44.180984,49.561249 46.588280,51.148090 48.256340,51.061451 
	C50.169128,50.962101 53.054989,49.402016 53.619057,47.805538 
	C54.735744,44.644974 55.039490,40.986279 54.786491,37.600216 
	C54.366482,31.978975 52.008575,30.469543 45.326397,31.386431 
M28.131439,34.613152 
	C28.554697,36.270535 28.554697,36.270535 31.865793,35.169979 
	C31.865793,39.628597 31.865793,44.087215 31.865793,48.487598 
	C30.460503,48.918545 29.229193,49.296135 27.997883,49.673729 
	C28.054373,49.965656 28.110861,50.257587 28.167349,50.549515 
	C31.457960,50.549515 34.748569,50.549515 38.039181,50.549515 
	C38.087158,50.251251 38.135139,49.952988 38.183121,49.654720 
	C36.955894,49.216240 35.728664,48.777760 34.085251,48.190578 
	C34.085251,42.524426 34.085251,36.811462 34.085251,30.259340 
	C31.829031,31.882084 30.276115,32.998989 28.131439,34.613152 
z"/>
<path fill="#1A1C1E" opacity="1.000000" stroke="none" 
	d="
M45.699791,31.210482 
	C52.008575,30.469543 54.366482,31.978975 54.786491,37.600216 
	C55.039490,40.986279 54.735744,44.644974 53.619057,47.805538 
	C53.054989,49.402016 50.169128,50.962101 48.256340,51.061451 
	C46.588280,51.148090 44.180984,49.561249 43.204506,48.016041 
	C40.431976,43.628704 41.745331,35.359505 45.699791,31.210482 
M50.725159,33.694035 
	C47.246513,31.689985 45.257252,33.182899 44.819828,36.670830 
	C44.457596,39.559162 44.389057,42.627701 45.008049,45.436192 
	C45.325199,46.875187 47.432884,47.919548 48.731354,49.142265 
	C49.848396,47.918434 51.851418,46.738567 51.914730,45.462456 
	C52.097488,41.779076 51.498600,38.056919 50.725159,33.694035 
z"/>
<path fill="#0B0C0D" opacity="1.000000" stroke="none" 
	d="
M28.427320,34.364525 
	C30.276115,32.998989 31.829031,31.882084 34.085251,30.259340 
	C34.085251,36.811462 34.085251,42.524426 34.085251,48.190578 
	C35.728664,48.777760 36.955894,49.216240 38.183121,49.654720 
	C38.135139,49.952988 38.087158,50.251251 38.039181,50.549515 
	C34.748569,50.549515 31.457960,50.549515 28.167349,50.549515 
	C28.110861,50.257587 28.054373,49.965656 27.997883,49.673729 
	C29.229193,49.296135 30.460503,48.918545 31.865793,48.487598 
	C31.865793,44.087215 31.865793,39.628597 31.871635,35.169373 
	C28.554697,36.270535 28.554697,36.270535 28.427320,34.364525 
z"/>
<path fill="#D4E4F2" opacity="1.000000" stroke="none" 
	d="
M50.965908,34.022011 
	C51.498600,38.056919 52.097488,41.779076 51.914730,45.462456 
	C51.851418,46.738567 49.848396,47.918434 48.731354,49.142262 
	C47.432884,47.919548 45.325199,46.875187 45.008049,45.436192 
	C44.389057,42.627701 44.457596,39.559162 44.819828,36.670830 
	C45.257252,33.182899 47.246513,31.689985 50.965908,34.022011 
z"/>
</svg>